<?xml version="1.0" standalone="no"?>
<!DOCTYPE svg PUBLIC "-//W3C//DTD SVG 20010904//EN"
 "http://www.w3.org/TR/2001/REC-SVG-20010904/DTD/svg10.dtd">
<svg version="1.0" xmlns="http://www.w3.org/2000/svg"
 width="500.000000pt" height="500.000000pt" viewBox="0 0 500.000000 500.000000"
 preserveAspectRatio="xMidYMid meet">
<metadata>
Created by potrace 1.11, written by Peter Selinger 2001-2013
</metadata>
<g transform="translate(0.000000,500.000000) scale(0.100000,-0.100000)"
fill="#000000" stroke="none">
<path d="M1470 4873 c0 -4 12 -19 26 -34 28 -29 25 -56 -4 -40 -25 13 -164 43
-170 36 -3 -2 2 -13 11 -23 14 -15 24 -52 15 -52 -2 0 -25 7 -52 15 -60 18
-186 20 -186 3 0 -6 10 -22 22 -35 l21 -23 -107 0 -108 0 22 -32 c23 -36 60
-114 60 -129 0 -5 -20 -9 -45 -9 -25 0 -45 -5 -45 -10 0 -6 30 -40 66 -75 71
-69 71 -84 -2 -71 -34 7 -35 6 -23 -15 6 -13 38 -48 71 -79 32 -31 55 -59 52
-63 -4 -4 -20 -7 -36 -7 -15 0 -28 -4 -28 -10 0 -5 34 -35 75 -67 l75 -58 -33
-3 c-17 -2 -36 -7 -41 -12 -10 -10 83 -73 152 -104 23 -10 42 -23 42 -28 0 -8
-30 -12 -57 -9 -21 3 -14 -16 12 -33 14 -9 61 -28 106 -43 71 -23 79 -28 64
-40 -10 -7 -23 -14 -29 -17 -33 -14 80 -46 162 -46 65 0 82 -13 48 -35 -48
-32 -32 -38 77 -32 240 15 419 111 473 253 l17 45 -49 51 c-67 69 -187 162
-324 250 -103 67 -162 102 -350 207 -30 17 -52 31 -49 31 17 0 268 -109 379
-164 146 -73 273 -150 385 -235 l80 -60 40 23 c51 30 101 95 116 149 23 86 -8
209 -85 335 -37 61 -112 152 -126 152 -4 0 -10 -14 -14 -32 l-6 -32 -73 72
c-71 71 -104 90 -93 54 4 -10 0 -26 -8 -37 -13 -18 -14 -18 -24 2 -13 24 -69
68 -99 77 -20 6 -23 4 -23 -18 0 -38 -17 -40 -59 -7 -38 30 -122 73 -129 66
-2 -2 4 -15 14 -30 25 -39 6 -51 -39 -25 -20 12 -65 30 -99 41 -73 22 -68 21
-68 12z"/>
<path d="M3311 4864 c-18 -8 -55 -30 -82 -50 -53 -39 -73 -37 -67 7 7 43 -13
37 -80 -26 -33 -30 -62 -52 -66 -48 -3 3 -6 21 -6 40 0 18 -4 33 -8 33 -5 0
-41 -34 -81 -75 -40 -41 -74 -75 -76 -75 -1 0 -5 14 -8 30 -4 17 -11 30 -16
30 -29 0 -150 -180 -188 -278 -60 -156 -17 -303 106 -367 28 -14 31 -13 67 17
126 101 426 274 611 352 87 37 193 76 193 72 0 -2 -27 -18 -60 -35 -270 -141
-553 -334 -674 -459 -38 -40 -39 -42 -26 -74 65 -162 230 -251 485 -264 l110
-5 -29 24 c-37 32 -26 47 34 47 83 0 197 32 164 46 -6 3 -19 11 -29 18 -16 11
-8 16 66 39 85 27 129 50 129 68 0 5 -6 9 -12 8 -27 -3 -58 1 -58 9 0 4 28 20
61 36 77 37 144 85 133 96 -5 5 -24 10 -43 12 l-34 3 55 37 c29 21 67 51 83
68 l29 30 -35 0 c-20 0 -38 3 -42 6 -3 4 25 37 63 74 80 77 87 94 35 84 -71
-13 -71 2 -1 70 36 35 66 69 66 75 0 6 -18 11 -46 11 -42 0 -45 1 -38 23 9 30
33 76 55 109 11 14 19 29 19 32 0 3 -48 6 -107 6 l-107 0 28 29 28 29 -58 8
c-54 6 -129 -3 -176 -21 -26 -10 -24 31 2 47 54 34 -10 33 -123 -2 -65 -20
-80 -12 -43 25 22 21 22 25 7 30 -20 6 -120 -26 -153 -49 -12 -9 -26 -16 -30
-16 -12 0 -9 45 4 58 19 19 6 21 -31 6z"/>
<path d="M2385 3678 c-83 -15 -227 -91 -289 -152 -60 -58 -76 -88 -76 -142 0
-47 20 -82 75 -133 94 -86 245 -133 430 -133 136 0 238 21 332 67 118 58 167
135 143 225 -9 33 -28 60 -78 109 -136 134 -344 195 -537 159z"/>
<path d="M1685 3589 c-289 -41 -497 -274 -499 -559 l-1 -95 38 1 c141 4 792
573 729 636 -25 25 -155 33 -267 17z"/>
<path d="M3090 3573 c-47 -18 -17 -76 103 -201 223 -230 536 -459 615 -450
l27 3 -1 100 c-1 79 -7 114 -27 167 -70 191 -202 313 -397 367 -57 16 -102 21
-190 20 -63 0 -122 -3 -130 -6z"/>
<path d="M2943 3095 c-165 -45 -273 -157 -318 -330 -48 -186 21 -401 180 -560
136 -137 305 -201 465 -176 290 44 448 338 345 642 -34 102 -80 173 -165 259
-145 146 -341 209 -507 165z"/>
<path d="M1938 3020 l4 -61 46 3 47 3 3 58 3 57 -53 0 -53 0 3 -60z"/>
<path d="M1716 3012 c-39 -20 -97 -61 -130 -92 l-59 -55 39 -5 39 -5 3 -52 3
-53 49 0 49 0 3 53 3 52 55 0 55 0 3 -52 3 -53 50 0 49 0 0 99 0 100 -52 3
-53 3 -3 48 c-4 59 -13 59 -106 9z"/>
<path d="M2158 2997 l-3 -42 -52 -3 -53 -3 0 -100 0 -99 50 0 50 0 0 55 0 55
55 0 55 0 0 -55 0 -55 50 0 50 0 0 51 c0 39 -6 60 -29 93 -34 50 -97 108 -140
130 l-30 16 -3 -43z"/>
<path d="M1463 2769 c-36 -57 -73 -164 -84 -244 -23 -169 49 -353 175 -443 42
-31 46 -32 46 -13 0 19 6 21 55 21 l55 0 0 160 0 160 -55 0 -55 0 0 110 0 110
-55 0 -54 0 -3 88 -3 87 -22 -36z"/>
<path d="M3826 2765 c-110 -118 -33 -719 109 -861 38 -38 75 -32 123 20 92
100 137 239 129 401 -8 173 -81 314 -218 417 -74 55 -108 61 -143 23z"/>
<path d="M1054 2746 c-151 -102 -244 -280 -244 -466 0 -93 19 -173 65 -266 35
-71 110 -154 139 -154 29 0 77 54 110 123 68 142 114 399 103 577 -6 109 -19
154 -55 193 -34 35 -57 34 -118 -7z"/>
<path d="M2371 2528 c1 -100 1 -102 16 -69 8 19 17 65 20 103 6 65 5 68 -16
68 -20 0 -21 -4 -20 -102z"/>
<path d="M2260 2324 c0 -64 3 -85 13 -82 11 4 97 145 97 160 0 5 -25 8 -55 8
l-55 0 0 -86z"/>
<path d="M2438 2101 c-61 -9 -70 -18 -66 -72 l3 -44 105 -1 105 -2 3 -56 3
-55 -108 -3 -108 -3 -3 -267 -2 -268 293 0 c278 0 295 1 311 19 27 29 45 90
46 147 0 43 3 53 20 57 17 4 20 13 19 54 -2 233 -195 444 -444 488 -86 15
-104 16 -177 6z"/>
<path d="M3640 1911 c-81 -25 -226 -127 -316 -222 -98 -103 -179 -242 -186
-314 l-3 -40 52 -3 52 -3 3 -52 3 -52 158 -3 157 -3 0 56 0 55 110 0 110 0 0
55 0 55 59 0 c33 0 63 4 66 10 15 24 16 150 1 230 -21 118 -59 189 -116 218
-45 22 -102 27 -150 13z"/>
<path d="M1245 1843 c-56 -12 -98 -39 -120 -77 -23 -40 -45 -132 -45 -188 l0
-28 155 0 155 0 0 -55 0 -55 105 0 105 0 0 133 0 132 -63 43 c-101 69 -227
110 -292 95z"/>
<path d="M847 1654 c-4 -4 -7 -324 -7 -711 l0 -703 115 0 115 0 0 50 0 50 160
0 160 0 0 55 0 55 50 0 50 0 0 -105 0 -105 -50 0 -50 0 0 -120 0 -120 600 0
600 0 0 120 0 120 -55 0 -55 0 0 35 c0 40 3 39 -106 53 -146 19 -295 91 -417
201 -33 30 -78 58 -122 75 -38 15 -107 48 -152 72 -76 41 -83 43 -83 25 0 -18
-6 -21 -51 -21 l-51 0 4 55 3 55 -57 0 -58 0 0 33 c0 28 -5 36 -35 50 -20 9
-40 17 -45 17 -28 0 -230 205 -269 274 -25 44 -38 56 -57 56 -22 0 -24 3 -24
54 0 63 -28 188 -66 296 -29 81 -37 94 -47 84z m213 -599 l0 -55 -50 0 -50 0
0 55 0 55 50 0 50 0 0 -55z m105 -109 l0 -48 -47 -2 -48 -1 0 53 0 53 48 -3
47 -3 0 -49z m-105 -106 l0 -50 -50 0 -50 0 0 50 0 50 50 0 50 0 0 -50z m220
0 l0 -50 -55 0 -55 0 0 43 c0 24 3 47 7 50 3 4 28 7 55 7 l48 0 0 -50z m-110
-110 l0 -50 -50 0 -50 0 0 50 0 50 50 0 50 0 0 -50z m220 0 l0 -50 -55 0 -55
0 0 50 0 50 55 0 55 0 0 -50z m-330 -110 l0 -50 -50 0 -50 0 0 50 0 50 50 0
50 0 0 -50z m220 0 l0 -50 -55 0 -55 0 0 50 0 50 55 0 55 0 0 -50z m210 0 l0
-50 -50 0 -50 0 0 50 0 50 50 0 50 0 0 -50z m-320 -110 l0 -50 -50 0 -50 0 0
50 0 50 50 0 50 0 0 -50z"/>
<path d="M1115 1398 c18 -81 48 -89 53 -15 3 47 3 47 -28 47 -30 0 -31 -1 -25
-32z"/>
<path d="M1180 1275 c0 -39 3 -45 24 -51 13 -3 34 -4 46 -2 20 3 23 9 24 51
l1 47 -47 0 -48 0 0 -45z"/>
<path d="M1392 1273 l3 -48 48 -3 47 -3 0 50 0 51 -51 0 -50 0 3 -47z"/>
<path d="M3961 1169 c-17 -28 -31 -52 -31 -55 0 -2 16 -4 35 -4 l35 0 0 55 c0
30 -2 55 -4 55 -1 0 -17 -23 -35 -51z"/>
<path d="M1280 1172 c0 -48 14 -62 62 -62 l38 0 0 50 0 50 -50 0 -50 0 0 -38z"/>
<path d="M1502 1163 l3 -48 48 -3 47 -3 0 50 0 51 -51 0 -50 0 3 -47z"/>
<path d="M2372 1168 l3 -43 48 -3 47 -3 0 45 0 46 -51 0 -50 0 3 -42z"/>
<path d="M2590 1165 c0 -41 2 -45 24 -45 14 0 36 4 50 10 21 8 26 16 26 45 l0
35 -50 0 -50 0 0 -45z"/>
<path d="M2810 1199 c0 -5 5 -7 10 -4 6 3 10 8 10 11 0 2 -4 4 -10 4 -5 0 -10
-5 -10 -11z"/>
<path d="M3087 1203 c-12 -11 -7 -98 8 -149 26 -90 91 -127 220 -126 144 0
293 70 409 192 71 75 72 90 7 90 l-50 0 -3 -52 -3 -53 -275 0 -275 0 0 53 c0
41 -3 52 -16 52 -9 0 -19 -3 -22 -7z"/>
<path d="M4108 1058 l-3 -53 -105 0 -105 0 -5 27 -5 26 -52 -48 -53 -49 0
-140 0 -141 -49 0 -50 0 -3 53 -3 52 -84 3 -83 3 -96 -58 -96 -58 122 -3 122
-3 0 -54 0 -55 110 0 110 0 0 -55 0 -55 110 0 110 0 0 60 0 60 -55 0 -55 0 0
50 0 50 55 0 55 0 0 60 0 60 -56 0 -55 0 3 48 3 47 108 3 107 3 0 -56 0 -55
55 0 55 0 0 55 0 55 55 0 55 0 0 55 0 55 -55 0 -55 0 0 55 0 55 -54 0 -55 0
-3 -52z"/>
<path d="M1390 1072 c0 -40 19 -59 63 -64 l37 -4 0 48 0 48 -50 0 c-48 0 -50
-1 -50 -28z"/>
<path d="M1511 975 c8 -9 32 -18 52 -22 33 -5 37 -3 37 16 0 19 -6 21 -52 21
-47 0 -51 -2 -37 -15z"/>
<path d="M2415 961 c-34 -5 -40 -10 -43 -33 -3 -27 -2 -28 47 -28 l51 0 0 35
c0 19 -3 34 -7 34 -5 -1 -26 -5 -48 -8z"/>
<path d="M2597 964 c-4 -4 -7 -20 -7 -36 0 -27 2 -28 50 -28 49 0 50 1 50 30
0 24 -4 30 -22 30 -13 0 -32 3 -43 6 -11 3 -24 2 -28 -2z"/>
<path d="M2810 919 c0 -16 8 -19 47 -19 53 0 50 9 -8 26 -36 11 -39 10 -39 -7z"/>
<path d="M2480 840 l0 -50 50 0 50 0 0 50 0 50 -50 0 -50 0 0 -50z"/>
<path d="M2700 840 l0 -50 50 0 50 0 0 50 0 50 -50 0 -50 0 0 -50z"/>
<path d="M3032 790 c0 -19 2 -27 5 -17 2 9 2 25 0 35 -3 9 -5 1 -5 -18z"/>
<path d="M2370 730 l0 -50 50 0 50 0 0 50 0 50 -50 0 -50 0 0 -50z"/>
<path d="M2590 730 l0 -50 50 0 50 0 0 50 0 50 -50 0 -50 0 0 -50z"/>
<path d="M2810 730 l0 -50 50 0 50 0 0 50 0 50 -50 0 -50 0 0 -50z"/>
<path d="M3158 602 c-37 -15 -83 -43 -103 -62 -35 -33 -35 -35 -35 -117 l0
-83 55 0 55 0 0 110 0 110 55 0 55 0 0 35 c0 19 -3 35 -7 34 -5 0 -38 -12 -75
-27z"/>
<path d="M2480 509 l0 -52 73 6 c79 6 196 41 249 76 l33 21 -177 0 -178 0 0
-51z"/>
</g>
</svg>
